<?xml version="1.0" standalone="no"?>
<!DOCTYPE svg PUBLIC "-//W3C//DTD SVG 20010904//EN"
 "http://www.w3.org/TR/2001/REC-SVG-20010904/DTD/svg10.dtd">
<svg version="1.0" xmlns="http://www.w3.org/2000/svg"
 width="1024.000000pt" height="1024.000000pt" viewBox="0 0 1024.000000 1024.000000"
 preserveAspectRatio="xMidYMid meet">
<metadata>
Created by potrace 1.14, written by Peter Selinger 2001-2017
</metadata>
<g transform="translate(0.000000,1024.000000) scale(0.100000,-0.100000)"
fill="#000000" stroke="none">
<path d="M0 5120 l0 -5120 5120 0 5120 0 0 5120 0 5120 -5120 0 -5120 0 0
-5120z m9356 4084 c64 -47 69 -63 69 -214 0 -154 -6 -170 -75 -217 l-33 -23
-987 0 -987 0 -33 23 c-65 44 -75 67 -78 189 -5 135 1 168 35 209 52 61 -3 59
1075 56 979 -2 987 -2 1014 -23z m-877 -1184 c22 -11 50 -36 62 -57 24 -38 24
-39 27 -420 l3 -382 379 -3 c364 -3 380 -4 406 -24 64 -47 69 -63 69 -214 0
-151 -5 -167 -69 -214 -26 -20 -42 -21 -406 -24 l-379 -3 -3 -382 c-3 -381 -3
-382 -27 -420 -38 -61 -81 -77 -211 -77 -130 0 -173 16 -211 77 -24 38 -24 39
-27 420 l-3 382 -379 3 c-364 3 -380 4 -406 24 -64 47 -69 63 -69 214 0 151 5
167 69 214 26 20 42 21 406 24 l379 3 3 382 c3 381 3 382 26 420 39 61 79 76
210 77 93 0 120 -3 151 -20z m-2955 -834 c172 -115 317 -236 481 -400 258
-259 433 -502 585 -810 183 -374 263 -696 264 -1061 0 -188 -16 -329 -54 -474
l-19 -74 33 -41 c151 -185 278 -466 328 -720 37 -192 24 -445 -23 -454 -10 -2
-29 21 -55 65 -46 81 -170 209 -236 245 -118 65 -150 72 -323 72 -146 0 -168
-3 -250 -28 -49 -15 -171 -68 -269 -117 -238 -118 -409 -173 -661 -211 -143
-21 -480 -16 -643 10 -628 101 -1210 403 -1684 876 -158 157 -356 403 -433
535 -10 17 -2 13 80 -44 171 -120 450 -266 655 -343 612 -230 1234 -226 1725
12 164 80 159 70 69 141 -349 273 -819 729 -1204 1170 -281 322 -728 874 -830
1025 -73 109 -80 113 147 -84 381 -331 970 -780 1393 -1063 289 -192 286 -192
117 -5 -263 292 -584 685 -849 1042 -125 169 -284 393 -300 425 -6 11 63 -52
153 -140 531 -519 1164 -1041 1754 -1449 161 -112 334 -221 340 -214 11 12 67
213 85 303 31 154 39 460 16 635 -51 388 -199 767 -442 1138 -40 61 -71 112
-67 112 3 0 56 -33 117 -74z"/>
</g>
</svg>
