<?xml version="1.0" standalone="no"?>
<!DOCTYPE svg PUBLIC "-//W3C//DTD SVG 20010904//EN"
 "http://www.w3.org/TR/2001/REC-SVG-20010904/DTD/svg10.dtd">
<svg version="1.0" xmlns="http://www.w3.org/2000/svg"
 width="1000.000000pt" height="1000.000000pt" viewBox="0 0 1000.000000 1000.000000"
 preserveAspectRatio="xMidYMid meet">
<metadata>
Created by potrace 1.14, written by Peter Selinger 2001-2017
</metadata>
<g transform="translate(0.000000,1000.000000) scale(0.100000,-0.100000)"
fill="#000000" stroke="none">
<path d="M1450 9993 c-415 -41 -809 -248 -1071 -561 -184 -221 -303 -473 -355
-757 -18 -96 -19 -234 -19 -3675 0 -3441 1 -3579 19 -3675 124 -670 631 -1177
1301 -1301 96 -18 234 -19 3675 -19 3441 0 3579 1 3675 19 373 69 711 263 946
544 184 221 303 473 355 757 18 96 19 234 19 3675 0 3441 -1 3579 -19 3675
-69 373 -263 711 -544 946 -213 178 -442 288 -728 351 l-99 22 -3560 2 c-1958
0 -3576 -1 -3595 -3z m716 -1385 c107 -32 137 -51 355 -225 185 -147 510 -401
912 -711 425 -328 607 -474 666 -537 99 -106 160 -261 161 -406 0 -131 -68
-300 -166 -407 -30 -33 -134 -118 -236 -193 -101 -73 -394 -291 -653 -483
-965 -719 -960 -715 -1128 -750 -212 -44 -412 11 -557 154 -201 199 -224 513
-56 768 45 68 67 89 193 182 78 58 328 243 555 412 227 169 421 313 431 321
17 11 -20 42 -369 312 -660 511 -715 556 -762 623 -97 139 -139 275 -129 426
17 263 195 473 452 532 85 19 230 11 331 -18z m5580 -3899 c208 -63 362 -207
432 -402 36 -98 38 -248 5 -352 -59 -189 -211 -332 -429 -404 l-92 -31 -1331
0 c-1497 0 -1413 -4 -1577 75 -155 75 -270 218 -314 391 -25 98 -25 180 0 279
49 193 196 350 392 421 117 42 114 42 1509 43 1331 1 1337 1 1405 -20z"/>
</g>
</svg>
