<?xml version="1.0" encoding="UTF-8"?>
<svg xmlns="http://www.w3.org/2000/svg" xmlns:xlink="http://www.w3.org/1999/xlink" width="54" height="54" viewBox="0 0 54 54" version="1.1">
<g id="surface1">
<rect x="0" y="0" width="54" height="54" style="fill:rgb(5.098039%,43.137255%,99.215686%);fill-opacity:1;stroke:none;"/>
<path style=" stroke:none;fill-rule:nonzero;fill:rgb(100%,100%,100%);fill-opacity:1;" d="M 35.761719 30.957031 C 35.796875 30.835938 35.832031 30.714844 35.863281 30.59375 C 37.203125 25.261719 33.9375 18.957031 28.410156 15.640625 C 30.832031 18.921875 31.902344 22.898438 30.953125 26.375 C 30.867188 26.6875 30.765625 26.984375 30.652344 27.273438 C 30.53125 27.195312 30.375 27.101562 30.167969 26.988281 C 30.167969 26.988281 24.671875 23.59375 18.714844 17.589844 C 18.558594 17.433594 21.890625 22.355469 25.671875 26.351562 C 23.890625 25.351562 18.925781 21.738281 15.78125 18.859375 C 16.164062 19.503906 16.625 20.125 17.128906 20.722656 C 19.757812 24.050781 23.179688 28.160156 27.285156 31.316406 C 24.402344 33.078125 20.328125 33.21875 16.273438 31.316406 C 15.269531 30.847656 14.324219 30.28125 13.453125 29.636719 C 15.171875 32.382812 17.8125 34.75 21.03125 36.132812 C 24.871094 37.785156 28.6875 37.671875 31.527344 36.160156 L 31.527344 36.164062 C 31.535156 36.160156 31.546875 36.152344 31.558594 36.144531 C 31.683594 36.078125 31.8125 36.007812 31.933594 35.933594 C 33.308594 35.226562 35.988281 34.53125 37.425781 37.335938 C 37.78125 38.023438 38.535156 34.371094 35.765625 30.960938 C 35.761719 30.960938 35.761719 30.960938 35.761719 30.957031 Z M 35.761719 30.957031 "/>
<path style=" stroke:none;fill-rule:nonzero;fill:rgb(100%,100%,100%);fill-opacity:1;" d="M 48.898438 16.242188 L 45.171875 16.242188 L 45.171875 12.445312 C 45.171875 11.980469 44.800781 11.601562 44.34375 11.601562 L 43.511719 11.601562 C 43.054688 11.601562 42.683594 11.980469 42.683594 12.445312 L 42.683594 16.242188 L 38.957031 16.242188 C 38.5 16.242188 38.125 16.621094 38.125 17.085938 L 38.125 17.929688 C 38.125 18.394531 38.5 18.773438 38.957031 18.773438 L 42.683594 18.773438 L 42.683594 22.570312 C 42.683594 23.035156 43.054688 23.414062 43.511719 23.414062 L 44.34375 23.414062 C 44.800781 23.414062 45.171875 23.035156 45.171875 22.570312 L 45.171875 18.773438 L 48.898438 18.773438 C 49.355469 18.773438 49.726562 18.394531 49.726562 17.929688 L 49.726562 17.085938 C 49.726562 16.621094 49.355469 16.242188 48.898438 16.242188 Z M 48.898438 16.242188 "/>
<path style=" stroke:none;fill-rule:nonzero;fill:rgb(100%,100%,100%);fill-opacity:1;" d="M 48.898438 5.328125 L 38.957031 5.328125 C 38.5 5.328125 38.125 5.707031 38.125 6.171875 L 38.125 7.019531 C 38.125 7.488281 38.5 7.867188 38.957031 7.867188 L 48.898438 7.867188 C 49.355469 7.867188 49.726562 7.488281 49.726562 7.019531 L 49.726562 6.171875 C 49.726562 5.707031 49.355469 5.328125 48.898438 5.328125 Z M 48.898438 5.328125 "/>
</g>
</svg>
