<?xml version="1.0" encoding="UTF-8"?>
<svg xmlns="http://www.w3.org/2000/svg" xmlns:xlink="http://www.w3.org/1999/xlink" width="54" height="54" viewBox="0 0 54 54" version="1.1">
<g id="surface1">
<rect x="0" y="0" width="54" height="54" style="fill:rgb(5.098039%,43.137255%,99.215686%);fill-opacity:1;stroke:none;"/>
<path style=" stroke:none;fill-rule:nonzero;fill:rgb(100%,100%,100%);fill-opacity:1;" d="M 35.761719 30.957031 C 35.796875 30.835938 35.832031 30.714844 35.863281 30.59375 C 37.203125 25.261719 33.9375 18.957031 28.410156 15.640625 C 30.832031 18.921875 31.902344 22.898438 30.953125 26.375 C 30.867188 26.6875 30.765625 26.984375 30.652344 27.273438 C 30.53125 27.195312 30.375 27.101562 30.167969 26.988281 C 30.167969 26.988281 24.671875 23.59375 18.714844 17.589844 C 18.558594 17.433594 21.890625 22.355469 25.671875 26.351562 C 23.890625 25.351562 18.925781 21.738281 15.78125 18.859375 C 16.164062 19.503906 16.625 20.125 17.128906 20.722656 C 19.757812 24.050781 23.179688 28.160156 27.285156 31.316406 C 24.402344 33.078125 20.328125 33.21875 16.273438 31.316406 C 15.269531 30.847656 14.324219 30.28125 13.453125 29.636719 C 15.171875 32.382812 17.8125 34.75 21.03125 36.132812 C 24.871094 37.785156 28.6875 37.671875 31.527344 36.160156 L 31.527344 36.164062 C 31.535156 36.160156 31.546875 36.152344 31.558594 36.144531 C 31.683594 36.078125 31.8125 36.007812 31.933594 35.933594 C 33.308594 35.226562 35.988281 34.53125 37.425781 37.335938 C 37.78125 38.023438 38.535156 34.371094 35.765625 30.960938 C 35.761719 30.960938 35.761719 30.960938 35.761719 30.957031 Z M 35.761719 30.957031 "/>
<path style="fill:none;stroke-width:20;stroke-linecap:round;stroke-linejoin:miter;stroke:rgb(100%,100%,100%);stroke-opacity:1;stroke-miterlimit:4;" d="M 112.209989 243.777778 L 41.839619 493.185185 " transform="matrix(0.0527344,0,0,0.0527344,36.438145,1.371094)"/>
<path style="fill:none;stroke-width:20;stroke-linecap:round;stroke-linejoin:miter;stroke:rgb(100%,100%,100%);stroke-opacity:1;stroke-miterlimit:4;" d="M 290.024804 422 L 41.802582 493.185185 " transform="matrix(-0.0527344,0,0,-0.0527344,53.895839,49.675781)"/>
<path style="fill:none;stroke-width:20;stroke-linecap:round;stroke-linejoin:miter;stroke:rgb(100%,100%,100%);stroke-opacity:1;stroke-miterlimit:4;" d="M 113.024804 244 L 290.209989 422.222222 " transform="matrix(0.0527344,0,0,0.0527344,36.438145,1.371094)"/>
<path style="fill:none;stroke-width:20;stroke-linecap:round;stroke-linejoin:miter;stroke:rgb(100%,100%,100%);stroke-opacity:1;stroke-miterlimit:4;" d="M 83.024804 368.962963 L 165.247026 458.222222 " transform="matrix(0.0527344,0,0,0.0527344,36.438145,1.371094)"/>
<path style="fill-rule:evenodd;fill:rgb(100%,100%,100%);fill-opacity:1;stroke-width:1;stroke-linecap:butt;stroke-linejoin:miter;stroke:rgb(100%,100%,100%);stroke-opacity:1;stroke-miterlimit:4;" d="M 81.358642 399.282074 L 143.462393 502.77234 L 19.251596 502.81224 Z M 81.358642 399.282074 " transform="matrix(-0.0359648,-0.0385675,0.0385675,-0.0359648,26.268928,44.493974)"/>
<path style="fill:none;stroke-width:20;stroke-linecap:round;stroke-linejoin:miter;stroke:rgb(100%,100%,100%);stroke-opacity:1;stroke-miterlimit:4;" d="M 355.024804 0 L 113.024804 242 " transform="matrix(0.0527344,0,0,0.0527344,36.438145,1.371094)"/>
<path style="fill:none;stroke-width:20;stroke-linecap:round;stroke-linejoin:miter;stroke:rgb(100%,100%,100%);stroke-opacity:1;stroke-miterlimit:4;" d="M 417.024804 58 L 175.024804 300 " transform="matrix(0.0527344,0,0,0.0527344,36.438145,1.371094)"/>
<path style="fill:none;stroke-width:20;stroke-linecap:round;stroke-linejoin:miter;stroke:rgb(100%,100%,100%);stroke-opacity:1;stroke-miterlimit:4;" d="M 475.024804 120 L 233.024804 362 " transform="matrix(0.0527344,0,0,0.0527344,36.438145,1.371094)"/>
<path style="fill:none;stroke-width:20;stroke-linecap:round;stroke-linejoin:miter;stroke:rgb(100%,100%,100%);stroke-opacity:1;stroke-miterlimit:4;" d="M 534.061841 179.037037 L 291.987767 420.962963 " transform="matrix(0.0527344,0,0,0.0527344,36.438145,1.371094)"/>
</g>
</svg>
